<?xml version="1.0" encoding="utf-8"?>
<!-- Generator: Adobe Illustrator 26.3.1, SVG Export Plug-In . SVG Version: 6.00 Build 0)  -->
<svg version="1.1" id="Capa_1" xmlns="http://www.w3.org/2000/svg" xmlns:xlink="http://www.w3.org/1999/xlink" x="0px" y="0px"
	 viewBox="0 0 400 400" style="enable-background:new 0 0 400 400;" xml:space="preserve">
<style type="text/css">
	.st0{fill:#FFFFFF;}
</style>
<path class="st0" d="M82.24,54.29L82.24,54.29c7.25,0,14.02,3.62,18.05,9.65L200,213.33l99.72-149.38
	c4.03-6.03,10.8-9.65,18.05-9.65h0c11.98,0,21.7,9.72,21.7,21.7v253.69c0,8.85-7.18,16.03-16.03,16.03h-0.83
	c-8.85,0-16.03-7.18-16.03-16.03V109.66l-97.96,142.97c-4.34,6.33-13.69,6.34-18.03,0.01L92.59,110.07v219.61
	c0,8.85-7.18,16.03-16.03,16.03h0c-8.85,0-16.03-7.18-16.03-16.03V75.99C60.54,64.01,70.25,54.29,82.24,54.29z"/>
</svg>
