<?xml version="1.0" encoding="utf-8"?>
<!-- Generator: Adobe Illustrator 26.3.1, SVG Export Plug-In . SVG Version: 6.00 Build 0)  -->
<svg version="1.1" id="Capa_1" xmlns="http://www.w3.org/2000/svg" xmlns:xlink="http://www.w3.org/1999/xlink" x="0px" y="0px"
	 viewBox="0 0 400 400" style="enable-background:new 0 0 400 400;" xml:space="preserve">
<style type="text/css">
	.st0{fill:#FFFFFF;}
</style>
<path class="st0" d="M51.38,231.01v-0.83c0-80.35,60.37-150.71,149.04-150.71c88.67,0,148.21,69.53,148.21,149.87v0.84
	c0,80.34-60.37,150.7-149.04,150.7S51.38,311.37,51.38,231.01z M314.48,231.01v-0.83c0-66.2-48.29-120.32-114.9-120.32
	S85.52,163.16,85.52,229.35v0.84c0,66.19,48.29,120.31,114.9,120.31S314.48,297.21,314.48,231.01z M145.05,19.11h109.91
	c7.36,0,13.32,5.96,13.32,13.32v0c0,7.36-5.96,13.32-13.32,13.32H145.05c-7.36,0-13.32-5.96-13.32-13.32v0
	C131.73,25.08,137.69,19.11,145.05,19.11z"/>
</svg>
