      <svg preserveAspectRatio="xMidYMid meet" data-bbox="11.759 9 187.341 92.79" viewBox="0 0 203.23 111.83" xmlns="http://www.w3.org/2000/svg" data-type="ugc" role="presentation" aria-hidden="true" aria-labelledby="svgcid-1nwpdv7d6v37"><title id="svgcid-1nwpdv7d6v37"></title>
        <g>
            <path d="M36.14 71.33a.23.23 0 0 0-.21.13.24.24 0 0 0 .1.33.23.23 0 0 0 .11 0 .26.26 0 0 0 .22-.13.25.25 0 0 0-.11-.33.2.2 0 0 0-.11 0" fill="none" stroke="#ffffff" stroke-linecap="round" stroke-linejoin="round" stroke-width="1.5"></path>
            <path d="M141.11 94.09c17.47 4.34 36 1.59 36 1.59-26.48 11.48-43.76 5.14-56.64-5.51" fill="none" stroke="#ffffff" stroke-linecap="round" stroke-linejoin="round" stroke-width="1.5"></path>
            <path d="M122.33 88.66c28.68 14.71 76.77-1.35 76.77-1.35-19.07 2.06-72.23-8.18-93.91-7.78" fill="none" stroke="#ffffff" stroke-linecap="round" stroke-linejoin="round" stroke-width="1.5"></path>
            <path d="M33.08 78.12c-3.51 1.52-6.82-1.05-6.82-1.05" fill="none" stroke="#ffffff" stroke-linecap="round" stroke-linejoin="round" stroke-width="1.5"></path>
            <path d="M31.44 74.65c2.78-2.86 0-6-1.56-7.07s-4-1.66-5.32-.42" fill="none" stroke="#ffffff" stroke-linecap="round" stroke-linejoin="round" stroke-width="1.5"></path>
            <path d="M30.57 67.67s7.88-1.64 9 3.73c1 5.07-4.44 7.68-4.44 7.68" fill="none" stroke="#ffffff" stroke-linecap="round" stroke-linejoin="round" stroke-width="1.5"></path>
            <path d="M38.51 64.85c-7.94-3.07-28-24.15-26.69-32.59 0 0 39.36 26.23 54.78 35.05" fill="none" stroke="#ffffff" stroke-linecap="round" stroke-linejoin="round" stroke-width="1.5"></path>
            <path d="M113.85 79.78c16.7-.61 24.12-1.51 31.18-3.09a23.09 23.09 0 0 1-12 4.91" fill="none" stroke="#ffffff" stroke-linecap="round" stroke-linejoin="round" stroke-width="1.5"></path>
            <path d="M59.15 70.87C85.21 62.89 121.26 9 121.26 9s3.39 2.86-.53 12.11c-2.73 6.52-12.09 19.49-20.28 29.44a295.15 295.15 0 0 0 25.8-29s2.5 3.47.6 10.69c-2.9 11-12.69 27.44-26.4 27.08l30.8-23.55c3.14 15-10.32 31.52-28.09 39.83 0 0-6.66 3.55-18.22 4.39 0 0-4.67.36-4.94-1.27-.22-1.35 5-1.67 5-1.67 21.69-1.45 35.26 10.05 38.93 12.82" fill="none" stroke="#ffffff" stroke-linecap="round" stroke-linejoin="round" stroke-width="1.5"></path>
            <path d="M125.43 90.1c-5.11-.92-28.34 1.15-28.34 1.15-45.87 5.16-64.23-14.13-64.23-14.13a4.33 4.33 0 0 0-3.06-3.36c-3.8-.76-4.26 3.78-4.45 5.17 0 0-2.67-1.4-2.76-5.62-.1-4.6 1.7-6.6 4.32-7.55 7.23-2.63 13.94-.52 22.92 1.3A95.36 95.36 0 0 0 63.92 69" fill="none" stroke="#ffffff" stroke-linecap="round" stroke-linejoin="round" stroke-width="1.5"></path>
        </g>
      </svg>