<?xml version="1.0" encoding="utf-8"?>
<!-- Generator: Adobe Illustrator 26.3.1, SVG Export Plug-In . SVG Version: 6.00 Build 0)  -->
<svg version="1.1" id="Capa_1" xmlns="http://www.w3.org/2000/svg" xmlns:xlink="http://www.w3.org/1999/xlink" x="0px" y="0px"
	 viewBox="0 0 409 221" style="enable-background:new 0 0 409 221;" xml:space="preserve">
<style type="text/css">
	.st0{fill:none;stroke:#000000;stroke-width:0.6;stroke-miterlimit:10;}
</style>
<g>
	<path class="st0" d="M22.39,92.93V22.89h16.13c11.8,0,17.71,6.85,17.71,20.56c0,4.13-0.64,7.64-1.92,10.53
		c-1.28,2.89-3.53,5.21-6.74,6.98l10.82,31.97H47.77l-9.35-29.9h-6v29.9H22.39z M32.42,32.34v21.84h5.71c1.77,0,3.18-0.25,4.23-0.74
		c1.05-0.49,1.87-1.2,2.46-2.11c0.52-0.92,0.89-2.05,1.08-3.39c0.2-1.34,0.29-2.9,0.29-4.67c0-1.77-0.1-3.33-0.29-4.67
		c-0.2-1.34-0.59-2.51-1.18-3.49c-1.25-1.84-3.61-2.75-7.08-2.75H32.42z"/>
	<path class="st0" d="M64.59,92.93V22.89h29.9v9.44H74.62v20.56h17.31v9.44H74.62V82.9h19.87v10.03H64.59z"/>
	<path class="st0" d="M135.31,22.89l-14.36,70.04h-8.85L97.84,22.89h10.62l7.97,48.89h0.2l8.07-48.89H135.31z"/>
	<path class="st0" d="M141.61,92.93V22.89h29.9v9.44h-19.87v20.56h17.31v9.44h-17.31V82.9h19.87v10.03H141.61z"/>
	<path class="st0" d="M178.3,92.93V22.89h16.13c11.8,0,17.71,6.85,17.71,20.56c0,4.13-0.64,7.64-1.92,10.53
		c-1.28,2.89-3.53,5.21-6.74,6.98l10.82,31.97h-10.62l-9.35-29.9h-6v29.9H178.3z M188.33,32.34v21.84h5.71
		c1.77,0,3.18-0.25,4.23-0.74c1.05-0.49,1.87-1.2,2.46-2.11c0.52-0.92,0.89-2.05,1.08-3.39c0.2-1.34,0.29-2.9,0.29-4.67
		c0-1.77-0.1-3.33-0.29-4.67c-0.2-1.34-0.59-2.51-1.18-3.49c-1.25-1.84-3.61-2.75-7.08-2.75H188.33z"/>
	<path class="st0" d="M252.96,43.06h-10.03v-2.26c0-2.29-0.54-4.28-1.62-5.95s-2.9-2.51-5.46-2.51c-1.38,0-2.49,0.26-3.34,0.79
		c-0.85,0.53-1.54,1.18-2.07,1.97c-0.53,0.85-0.89,1.82-1.08,2.9c-0.2,1.08-0.3,2.21-0.3,3.39c0,1.38,0.05,2.53,0.15,3.44
		c0.1,0.92,0.34,1.74,0.74,2.46c0.39,0.72,0.97,1.34,1.72,1.87c0.75,0.53,1.79,1.05,3.1,1.57l7.67,3.05c2.23,0.85,4.03,1.85,5.41,3
		c1.38,1.15,2.46,2.48,3.25,3.98c0.72,1.57,1.21,3.36,1.48,5.36c0.26,2,0.39,4.28,0.39,6.84c0,2.95-0.29,5.69-0.88,8.21
		c-0.59,2.53-1.54,4.67-2.85,6.44c-1.38,1.84-3.18,3.28-5.41,4.33c-2.23,1.05-4.95,1.57-8.17,1.57c-2.43,0-4.69-0.43-6.79-1.28
		c-2.1-0.85-3.9-2.03-5.41-3.54c-1.51-1.51-2.71-3.26-3.59-5.26c-0.88-2-1.33-4.18-1.33-6.54v-3.74h10.03v3.15
		c0,1.84,0.54,3.49,1.62,4.97c1.08,1.48,2.9,2.21,5.46,2.21c1.71,0,3.03-0.25,3.98-0.74c0.95-0.49,1.69-1.2,2.21-2.11
		c0.52-0.92,0.84-2.02,0.93-3.3s0.15-2.71,0.15-4.28c0-1.84-0.07-3.34-0.2-4.52c-0.13-1.18-0.39-2.13-0.79-2.85
		c-0.46-0.72-1.07-1.31-1.82-1.77c-0.75-0.46-1.75-0.95-3-1.48l-7.18-2.95c-4.33-1.77-7.23-4.11-8.71-7.03
		c-1.48-2.92-2.21-6.57-2.21-10.97c0-2.62,0.36-5.12,1.08-7.48c0.72-2.36,1.8-4.39,3.25-6.1c1.38-1.7,3.13-3.06,5.26-4.08
		c2.13-1.02,4.67-1.52,7.62-1.52c2.49,0,4.77,0.46,6.84,1.38c2.07,0.92,3.85,2.13,5.36,3.64c3.02,3.15,4.52,6.76,4.52,10.82V43.06z"
		/>
	<path class="st0" d="M261.03,92.93V22.89h10.03v70.04H261.03z"/>
	<path class="st0" d="M281.09,92.93V22.89h14.66c3.21,0,5.95,0.49,8.21,1.48c2.26,0.98,4.12,2.3,5.56,3.93
		c1.44,1.64,2.47,3.53,3.1,5.66c0.62,2.13,0.93,4.35,0.93,6.64v2.56c0,1.9-0.15,3.51-0.44,4.82c-0.29,1.31-0.74,2.46-1.33,3.44
		c-1.12,1.84-2.82,3.41-5.12,4.72c2.36,1.12,4.1,2.75,5.21,4.92c1.11,2.16,1.67,5.12,1.67,8.85v3.93c0,6.17-1.49,10.89-4.48,14.17
		c-2.98,3.28-7.76,4.92-14.31,4.92H281.09z M291.13,32.34v19.28h4.53c3.34,0,5.59-0.84,6.74-2.51c1.15-1.67,1.72-4.11,1.72-7.33
		c0-3.15-0.64-5.51-1.92-7.08c-1.28-1.57-3.59-2.36-6.93-2.36H291.13z M291.13,60.47V82.9h4.33c2.03,0,3.62-0.29,4.77-0.89
		c1.15-0.59,2.02-1.41,2.61-2.46c0.59-1.05,0.95-2.29,1.08-3.74c0.13-1.44,0.2-3.02,0.2-4.72c0-1.77-0.1-3.31-0.29-4.62
		c-0.2-1.31-0.59-2.43-1.18-3.34c-0.66-0.92-1.54-1.59-2.66-2.02c-1.12-0.43-2.59-0.64-4.43-0.64H291.13z"/>
	<path class="st0" d="M323.29,92.93V22.89h10.03v60h19.87v10.03H323.29z"/>
	<path class="st0" d="M359.98,92.93V22.89h29.9v9.44h-19.87v20.56h17.31v9.44h-17.31V82.9h19.87v10.03H359.98z"/>
	<path class="st0" d="M22.39,210.97v-70.04h14.66c3.21,0,5.95,0.49,8.21,1.48c2.26,0.98,4.11,2.3,5.56,3.93
		c1.44,1.64,2.47,3.53,3.1,5.66c0.62,2.13,0.93,4.35,0.93,6.64v2.56c0,1.9-0.15,3.51-0.44,4.82c-0.29,1.31-0.74,2.46-1.33,3.44
		c-1.12,1.84-2.82,3.41-5.11,4.72c2.36,1.12,4.1,2.75,5.21,4.92c1.11,2.16,1.67,5.12,1.67,8.85v3.93c0,6.17-1.49,10.89-4.48,14.17
		c-2.98,3.28-7.76,4.92-14.31,4.92H22.39z M32.42,150.38v19.28h4.52c3.34,0,5.59-0.84,6.74-2.51c1.15-1.67,1.72-4.11,1.72-7.33
		c0-3.15-0.64-5.51-1.92-7.08c-1.28-1.57-3.59-2.36-6.93-2.36H32.42z M32.42,178.51v22.43h4.33c2.03,0,3.62-0.29,4.77-0.89
		c1.15-0.59,2.02-1.41,2.61-2.46c0.59-1.05,0.95-2.29,1.08-3.74c0.13-1.44,0.2-3.02,0.2-4.72c0-1.77-0.1-3.31-0.3-4.62
		c-0.2-1.31-0.59-2.43-1.18-3.34c-0.66-0.92-1.54-1.59-2.66-2.02c-1.12-0.43-2.59-0.64-4.43-0.64H32.42z"/>
	<path class="st0" d="M97.05,140.93v54.3c0,2.3-0.41,4.41-1.23,6.34c-0.82,1.94-1.98,3.66-3.49,5.17c-1.51,1.51-3.25,2.69-5.21,3.54
		c-1.97,0.85-4.07,1.28-6.3,1.28c-2.23,0-4.31-0.43-6.25-1.28c-1.94-0.85-3.66-2.03-5.16-3.54c-1.51-1.51-2.69-3.23-3.54-5.17
		c-0.85-1.93-1.28-4.05-1.28-6.34v-54.3h10.03v53.31c0,2.49,0.59,4.33,1.77,5.51c1.18,1.18,2.66,1.77,4.43,1.77s3.25-0.59,4.43-1.77
		c1.18-1.18,1.77-3.02,1.77-5.51v-53.31H97.05z"/>
	<path class="st0" d="M138.66,191v4.33c0,2.16-0.41,4.21-1.23,6.15c-0.82,1.93-1.95,3.66-3.39,5.16c-1.44,1.51-3.13,2.71-5.07,3.59
		c-1.94,0.88-4.02,1.33-6.25,1.33c-1.9,0-3.84-0.26-5.8-0.79c-1.97-0.52-3.74-1.44-5.31-2.75c-1.57-1.31-2.87-3-3.89-5.07
		c-1.02-2.07-1.52-4.71-1.52-7.92v-38.56c0-2.29,0.39-4.43,1.18-6.39c0.79-1.97,1.9-3.67,3.34-5.11c1.44-1.44,3.16-2.57,5.16-3.39
		c2-0.82,4.21-1.23,6.64-1.23c4.72,0,8.56,1.54,11.51,4.62c1.44,1.51,2.57,3.29,3.39,5.36c0.82,2.07,1.23,4.31,1.23,6.74V161h-10.03
		v-3.34c0-1.97-0.56-3.67-1.67-5.12c-1.12-1.44-2.62-2.16-4.52-2.16c-2.49,0-4.15,0.77-4.97,2.31c-0.82,1.54-1.23,3.49-1.23,5.85
		v35.81c0,2.03,0.44,3.74,1.33,5.12c0.89,1.38,2.47,2.07,4.77,2.07c0.65,0,1.36-0.11,2.11-0.34c0.75-0.23,1.46-0.61,2.12-1.13
		c0.59-0.52,1.08-1.25,1.48-2.16c0.39-0.92,0.59-2.07,0.59-3.44V191H138.66z"/>
	<path class="st0" d="M147.12,210.97v-70.04h10.03v31.97h0.2l14.66-31.97h10.03l-13.67,28.03l16.23,42h-10.62l-11.41-31.08
		l-5.41,10.13v20.95H147.12z"/>
	<path class="st0" d="M189.32,210.97v-70.04h29.9v9.44h-19.87v20.56h17.31v9.44h-17.31v20.56h19.87v10.03H189.32z"/>
	<path class="st0" d="M232.6,210.97v-60.59h-11.61v-9.44h33.25v9.44h-11.61v60.59H232.6z"/>
	<path class="st0" d="M277.55,210.97v-70.04h10.03v30h12.39v-30h10.03v70.04h-10.03v-31.18h-12.39v31.18H277.55z"/>
	<path class="st0" d="M315.22,210.97l15.64-70.04h8.36l15.64,70.04h-10.03l-2.95-15.05h-13.67l-2.95,15.05H315.22z M340.01,186.48
		l-4.92-25.38h-0.2l-4.92,25.38H340.01z"/>
	<path class="st0" d="M361.26,210.97v-60.59h-11.61v-9.44h33.25v9.44h-11.61v60.59H361.26z"/>
</g>
</svg>
