<?xml version="1.0" encoding="utf-8"?>
<!-- Generator: Adobe Illustrator 26.3.1, SVG Export Plug-In . SVG Version: 6.00 Build 0)  -->
<svg version="1.1" id="Capa_1" xmlns="http://www.w3.org/2000/svg" xmlns:xlink="http://www.w3.org/1999/xlink" x="0px" y="0px"
	 viewBox="0 0 400 400" style="enable-background:new 0 0 400 400;" xml:space="preserve">
<style type="text/css">
	.st0{fill:#FFFFFF;}
</style>
<path class="st0" d="M97.71,291.09L97.71,291.09c5.48-6.49,15.12-7.37,21.78-2.1c26.39,20.88,53.06,31.32,88.26,31.32
	c39.13,0,64.95-20.81,64.95-49.54v-0.84c0-27.06-14.57-42.46-75.77-55.36C129.9,200,99.1,178.36,99.1,130.48v-0.83
	c0-45.8,40.38-79.52,95.75-79.52c36.21,0,63.64,8.78,89.27,26.08c7.39,4.99,8.94,15.29,3.57,22.42l-0.18,0.24
	c-5.1,6.76-14.56,8.12-21.57,3.37c-23.06-15.63-46.44-22.55-71.92-22.55c-37.88,0-62.03,20.82-62.03,47.04v0.84
	c0,27.48,14.99,42.88,79.1,56.62c64.95,14.15,94.92,37.88,94.92,82.43v0.83c0,49.96-41.63,82.43-99.5,82.43
	c-40.66,0-74.88-11.92-106.33-36.06C93.04,308.34,91.91,297.95,97.71,291.09z"/>
</svg>
