<?xml version="1.0" standalone="no"?>
<!DOCTYPE svg PUBLIC "-//W3C//DTD SVG 20010904//EN"
 "http://www.w3.org/TR/2001/REC-SVG-20010904/DTD/svg10.dtd">
<svg version="1.0" xmlns="http://www.w3.org/2000/svg"
 width="203.000000pt" height="203.000000pt" viewBox="0 0 203.000000 203.000000"
 preserveAspectRatio="xMidYMid meet">
<metadata>
Created by potrace 1.14, written by Peter Selinger 2001-2017
</metadata>
<g transform="translate(0.000000,203.000000) scale(0.100000,-0.100000)"
fill="#000000" stroke="none">
<path d="M1093 1383 c-88 -119 -225 -278 -300 -349 -57 -55 -161 -134 -175
-134 -14 0 -319 192 -510 321 -31 21 -59 35 -62 30 -20 -32 43 -139 141 -240
46 -46 83 -85 83 -87 0 -1 -17 -4 -38 -8 -21 -3 -46 -14 -55 -24 -22 -24 -29
-72 -14 -102 11 -21 20 -25 62 -26 38 0 62 -8 100 -32 66 -41 171 -79 270 -96
74 -13 313 -13 400 -1 17 2 62 5 101 6 63 1 76 -2 105 -24 92 -68 213 -102
328 -93 78 7 231 52 231 68 0 5 -20 8 -45 7 -24 -2 -47 -1 -50 2 -3 3 1 6 8 6
45 2 130 17 214 38 54 14 99 25 100 25 2 0 3 4 3 9 0 5 -30 9 -67 9 -69 -1
-252 11 -263 17 -3 1 -36 6 -75 10 -38 3 -99 10 -135 15 -36 5 -69 10 -75 10
-5 0 5 10 23 21 31 21 45 46 19 36 -8 -3 -40 -8 -73 -12 -32 -4 -70 -9 -84
-11 -47 -7 -249 -5 -264 3 -11 6 -1 16 42 38 139 73 255 227 256 340 0 63 -7
74 -31 53 -37 -31 -43 -30 -28 6 16 39 20 123 6 145 -7 10 -24 -6 -71 -63 -35
-42 -64 -76 -66 -76 -1 0 15 29 36 63 21 35 44 81 50 103 13 45 10 96 -6 101
-6 2 -47 -45 -91 -104z m62 -34 c-14 -30 -52 -90 -84 -134 -108 -147 -114
-155 -109 -160 3 -3 36 27 74 66 85 88 79 81 141 156 50 60 51 61 56 35 3 -15
-4 -55 -16 -91 -22 -63 -25 -66 -137 -152 -63 -48 -116 -93 -119 -100 -6 -20
64 -4 115 26 26 16 64 52 90 88 51 70 99 113 109 97 3 -5 4 -27 0 -48 -16
-102 -118 -229 -242 -299 -60 -34 -76 -38 -138 -39 -140 -2 -145 -2 -145 -24
0 -18 11 -23 50 -22 19 0 100 12 122 17 16 4 48 0 80 -10 60 -20 168 -76 168
-87 0 -5 -33 -9 -72 -9 -40 -1 -86 -3 -103 -6 -51 -7 -338 -8 -386 -1 -91 13
-217 57 -275 95 l-24 15 20 25 c38 48 10 102 -53 105 -20 1 -37 5 -37 9 0 11
94 2 200 -19 57 -12 94 -24 93 -31 -4 -17 13 -13 66 14 92 46 193 135 357 315
49 55 203 256 212 279 5 10 8 4 10 -20 2 -23 -6 -55 -23 -90z m-612 -430 c52
-30 55 -34 33 -37 -14 -2 -65 4 -113 13 -49 9 -99 19 -113 22 -39 7 -80 37
-152 110 -58 59 -138 172 -138 194 0 5 96 -54 213 -130 116 -75 238 -153 270
-172z m572 131 c-22 -22 -58 -46 -80 -55 l-40 -16 30 23 c16 13 50 39 75 59
57 46 66 40 15 -11z m-872 -188 c24 -21 21 -32 -7 -32 -14 0 -31 -9 -39 -20
-13 -18 -15 -19 -21 -5 -10 28 -7 53 10 69 16 17 26 14 57 -12z m67 0 c18 -14
21 -25 17 -44 -8 -30 -36 -45 -49 -26 -11 18 -10 88 1 88 5 0 19 -8 31 -18z
m-56 -68 c4 -11 0 -15 -16 -12 -12 2 -23 9 -26 16 -6 18 35 15 42 -4z m615
-18 c-9 -8 -88 -13 -83 -5 3 5 24 9 46 9 23 0 39 -2 37 -4z m476 -16 c-11 -5
-36 -8 -55 -8 l-35 1 40 7 c57 10 74 10 50 0z m-45 -30 c47 -6 103 -12 125
-15 22 -2 76 -9 120 -15 44 -5 109 -13 145 -16 36 -4 76 -8 90 -9 14 -2 45 -3
69 -4 24 -1 42 -4 39 -7 -4 -3 -66 -16 -140 -29 -102 -18 -162 -23 -258 -21
-151 4 -231 25 -340 92 l-75 46 70 -7 c39 -3 108 -10 155 -15z m53 -125 c18
-3 58 -10 90 -16 32 -5 91 -10 133 -11 77 -1 85 -9 24 -25 -57 -16 -161 -15
-224 2 -58 15 -176 73 -176 86 0 4 27 -2 61 -12 34 -11 75 -21 92 -24z"/>
<path d="M290 840 c0 -5 5 -10 10 -10 6 0 10 5 10 10 0 6 -4 10 -10 10 -5 0
-10 -4 -10 -10z"/>
</g>
</svg>
